<svg xmlns="http://www.w3.org/2000/svg" viewBox="0 0 1200 900" width="1200" height="900">
  <defs>
    <linearGradient id="g" x1="0" y1="0" x2="1" y2="1">
      <stop offset="0%" stop-color="#f4c17d" />
      <stop offset="50%" stop-color="#e2734f" />
      <stop offset="100%" stop-color="#6f3a3a" />
    </linearGradient>
  </defs>
  <rect width="1200" height="900" fill="url(#g)" />
  <g transform="translate(600 450)" fill="none" stroke="#ffffff" stroke-opacity="0.85" stroke-width="2.5">
    <circle r="200" stroke-opacity="0.35" />
    <circle r="150" stroke-opacity="0.5" />
    <circle r="60" stroke-opacity="0.9" />
    <g stroke-width="10" stroke-linecap="round">
      <path d="M 0 -170 A 170 170 0 0 1 147 -85" />
      <path d="M 147 -85 A 170 170 0 0 1 147 85" />
      <path d="M 147 85 A 170 170 0 0 1 0 170" />
      <path d="M 0 170 A 170 170 0 0 1 -147 85" />
      <path d="M -147 85 A 170 170 0 0 1 -147 -85" />
      <path d="M -147 -85 A 170 170 0 0 1 0 -170" />
    </g>
  </g>
</svg>
